<?xml version="1.0" standalone="no"?>
<!DOCTYPE svg PUBLIC "-//W3C//DTD SVG 20010904//EN"
 "http://www.w3.org/TR/2001/REC-SVG-20010904/DTD/svg10.dtd">
<svg version="1.0" xmlns="http://www.w3.org/2000/svg"
 width="1000.000000pt" height="1000.000000pt" viewBox="0 0 1000.000000 1000.000000"
 preserveAspectRatio="xMidYMid meet">
<metadata>
Created by potrace 1.11, written by Peter Selinger 2001-2013
</metadata>
<g transform="translate(0.000000,1000.000000) scale(0.100000,-0.100000)"
fill="#000000" stroke="none">
<path d="M2275 9602 c-2 -2 -32 -6 -68 -8 -84 -4 -135 -13 -217 -39 -78 -24
-203 -91 -274 -145 -28 -21 -126 -120 -159 -161 -40 -49 -113 -203 -132 -277
-16 -64 -26 -178 -26 -287 0 -33 1 -102 0 -152 0 -90 0 -109 2 -135 0 -15 0
-250 -1 -363 -1 -44 -1 -86 0 -92 0 -7 0 -19 1 -25 0 -15 0 -250 -1 -363 -1
-44 -1 -86 0 -92 0 -7 0 -19 1 -25 0 -15 0 -250 -1 -363 -1 -44 -1 -86 0 -92
0 -7 0 -19 1 -25 0 -15 0 -250 -1 -363 -1 -44 -1 -86 0 -92 0 -7 0 -19 1 -25
0 -7 0 -71 0 -143 0 -71 1 -141 2 -155 2 -14 0 -36 -3 -50 -4 -14 -4 -36 0
-50 4 -14 3 -35 -1 -47 -5 -12 -4 -25 1 -28 5 -3 5 -18 1 -33 -4 -15 -5 -38
-1 -52 4 -14 3 -35 -1 -47 -5 -12 -4 -25 1 -28 5 -3 5 -18 1 -33 -4 -15 -5
-38 -1 -52 4 -14 3 -35 -1 -47 -5 -12 -4 -25 1 -28 5 -3 5 -18 1 -33 -4 -15
-5 -38 -1 -52 4 -14 3 -35 -1 -47 -5 -12 -4 -25 1 -28 5 -3 5 -18 1 -33 -4
-15 -5 -38 -1 -52 4 -14 3 -35 -1 -47 -5 -12 -4 -25 1 -28 5 -3 5 -18 1 -33
-4 -15 -5 -38 -1 -52 4 -14 3 -35 -1 -47 -5 -12 -4 -25 1 -28 5 -3 5 -18 1
-33 -4 -15 -5 -38 -1 -52 4 -14 3 -35 -1 -47 -5 -12 -4 -25 1 -28 5 -3 5 -18
1 -33 -4 -15 -5 -38 -1 -52 4 -14 3 -35 -1 -46 -4 -12 -6 -24 -3 -26 2 -3 4
-33 4 -69 0 -35 0 -80 1 -99 1 -33 1 -44 -2 -72 -3 -28 13 -146 27 -203 26
-100 106 -261 136 -273 4 -2 8 -9 8 -16 0 -16 135 -146 178 -172 18 -10 32
-22 32 -26 0 -4 9 -8 20 -8 11 0 20 -4 20 -9 0 -13 131 -69 213 -90 119 -32
149 -34 487 -36 179 -2 327 -3 330 -4 3 0 5 -283 5 -627 0 -580 1 -628 18
-662 17 -37 87 -112 87 -96 0 5 4 3 9 -5 16 -24 132 -24 189 0 25 11 49 23 52
27 3 4 12 12 21 17 9 6 46 33 82 60 36 28 78 59 93 70 15 11 32 25 38 30 6 6
27 22 46 35 19 13 40 29 46 35 6 5 23 19 38 30 32 23 134 101 156 118 8 7 26
19 40 28 14 9 35 25 47 35 51 45 64 54 72 54 5 0 11 3 13 8 2 4 32 29 68 55
93 69 119 90 138 110 9 9 20 17 25 17 10 0 100 71 105 83 2 4 10 7 17 7 7 0
15 4 17 8 2 5 68 57 148 117 80 59 159 119 175 131 17 13 40 32 53 41 13 10
30 24 37 30 8 7 18 13 23 13 6 0 12 4 14 8 2 4 21 21 43 37 22 17 46 35 55 42
8 7 42 32 75 57 70 53 74 56 99 76 17 13 190 15 1415 16 768 0 1416 4 1441 8
25 5 54 10 65 12 166 31 357 141 475 273 101 113 158 224 193 376 12 51 24
374 17 465 -1 14 -2 32 -1 40 0 8 0 62 0 120 0 58 0 112 0 120 0 8 0 58 0 110
0 131 1 162 7 172 3 4 1 8 -5 8 -6 0 -7 11 -2 28 4 15 4 39 0 54 -4 15 -5 29
-2 32 3 2 4 53 3 113 0 59 -1 115 -1 123 0 8 0 58 0 110 0 123 0 103 0 235 0
63 0 123 0 133 0 9 0 53 0 97 0 44 0 87 0 95 0 8 0 38 0 65 0 28 0 59 1 70 2
31 2 28 2 265 -1 124 -1 236 -2 250 -1 14 -2 32 -1 40 0 8 0 62 0 120 0 58 0
112 0 120 0 18 0 200 0 218 0 22 0 562 0 580 0 9 0 53 0 97 0 44 0 87 0 95 0
8 0 38 0 65 0 28 0 57 0 65 1 8 0 40 0 70 -1 30 -1 62 0 70 1 21 0 88 -2 132
-1 21 -5 38 -9 38 -4 0 -5 8 -4 18 8 40 -102 302 -126 302 -5 0 -8 6 -8 13 0
17 -104 125 -173 181 -75 60 -221 130 -322 155 -73 18 -188 35 -225 32 -8 0
-37 0 -65 0 -27 0 -77 0 -110 -1 -80 -1 -73 -1 -135 0 -30 1 -59 1 -65 0 -5
-1 -14 -1 -20 0 -5 1 -62 2 -125 1 -63 -1 -122 -2 -130 -2 -8 1 -51 1 -95 1
-125 -1 -126 -1 -290 -1 -85 0 -163 0 -172 1 -10 0 -65 0 -123 -1 -58 0 -112
0 -120 0 -8 1 -51 1 -95 1 -44 0 -87 0 -95 0 -8 0 -37 -1 -65 -1 -27 -1 -57
-1 -65 0 -15 1 -166 1 -185 0 -5 0 -50 0 -100 0 -49 0 -97 1 -105 0 -8 0 -40
1 -70 1 -30 1 -59 1 -65 0 -5 -1 -14 -1 -20 0 -5 1 -62 2 -125 1 -63 -1 -122
-2 -130 -2 -8 1 -51 1 -95 1 -125 -1 -126 -1 -290 -1 -85 0 -163 0 -172 1 -10
0 -65 0 -123 -1 -58 0 -112 0 -120 0 -8 1 -51 1 -95 1 -44 0 -87 0 -95 0 -8 0
-37 -1 -65 -1 -27 -1 -57 -1 -65 0 -15 1 -166 1 -185 0 -5 0 -50 0 -100 0 -49
0 -97 1 -105 0 -8 0 -40 1 -70 1 -30 1 -59 1 -65 0 -5 -1 -14 -1 -20 0 -5 1
-62 2 -125 1 -63 -1 -122 -2 -130 -2 -8 1 -51 1 -95 1 -125 -1 -126 -1 -290
-1 -85 0 -163 0 -172 1 -10 0 -65 0 -123 -1 -121 0 -102 0 -203 3 -43 2 -80 1
-82 0z m1910 -1715 c22 -7 69 -17 100 -21 23 -3 43 -11 102 -37 24 -10 45 -19
49 -19 3 0 12 -6 20 -12 7 -7 41 -33 74 -58 33 -25 60 -50 60 -57 0 -6 4 -13
9 -15 26 -10 107 -154 138 -248 19 -55 26 -249 12 -310 -6 -25 -12 -54 -15
-65 -4 -22 -19 -64 -40 -112 -8 -17 -14 -34 -14 -38 0 -12 -62 -88 -100 -122
-19 -18 -65 -47 -102 -65 -37 -18 -67 -35 -67 -38 -1 -3 18 -13 42 -23 57 -23
138 -96 176 -157 17 -28 28 -50 25 -50 -4 0 -2 -6 4 -12 9 -12 19 -54 28 -123
3 -16 6 -124 9 -240 6 -316 14 -362 71 -425 28 -31 42 -80 23 -81 -8 -1 -18
-1 -23 0 -32 6 -76 6 -76 0 0 -4 -13 -4 -29 1 -16 4 -31 7 -33 5 -5 -5 -46 -6
-187 -5 -62 1 -115 -1 -118 -4 -6 -6 -63 14 -61 22 1 4 -3 25 -7 47 -5 22 -10
42 -10 45 -1 3 -4 19 -8 35 -13 64 -19 157 -22 347 -1 108 -6 201 -9 207 -4 6
-9 21 -11 33 -9 43 -36 87 -72 117 -20 17 -40 28 -45 25 -4 -3 -8 -1 -8 4 0 5
-6 9 -12 10 -7 1 -35 6 -63 12 -57 12 -601 18 -612 6 -4 -4 -8 -208 -8 -454
l0 -447 -26 -1 c-14 -1 -30 -4 -35 -7 -6 -3 -16 -2 -23 2 -7 5 -30 5 -51 1
-21 -4 -44 -4 -51 1 -7 4 -20 4 -29 -1 -9 -5 -22 -5 -29 -1 -7 5 -29 5 -49 2
-20 -4 -53 -4 -72 -1 -19 3 -47 3 -61 -1 -56 -15 -53 -85 -54 1168 0 637 3
1161 7 1164 11 8 1259 4 1283 -4z m1608 -77 c27 -47 65 -114 84 -150 20 -36
44 -77 55 -92 10 -14 18 -28 18 -30 0 -3 59 -107 130 -233 72 -125 130 -231
130 -236 0 -5 5 -9 10 -9 6 0 10 -4 10 -9 0 -12 103 -195 112 -199 4 -2 8 -7
8 -12 0 -5 33 -67 73 -138 41 -71 77 -135 80 -143 4 -8 17 -30 28 -49 12 -19
31 -53 42 -75 12 -22 24 -42 27 -45 3 -3 17 -27 32 -55 15 -27 30 -51 35 -52
4 -2 8 360 8 804 l0 808 226 0 227 1 0 -1168 0 -1168 -37 1 c-20 1 -40 0 -46
-1 -5 -1 -14 -1 -20 0 -5 1 -28 1 -50 1 -90 -1 -142 -1 -172 2 -18 2 -33 -1
-33 -6 0 -4 -4 -6 -9 -3 -5 3 -36 6 -70 7 -34 1 -61 5 -61 10 0 6 -148 269
-180 319 -24 38 -70 124 -70 132 0 4 -4 8 -10 8 -5 0 -10 4 -10 9 0 5 -56 106
-125 225 -69 120 -125 222 -125 227 0 5 -4 9 -8 9 -5 0 -14 16 -22 35 -8 19
-17 35 -21 35 -4 0 -9 8 -12 18 -3 9 -20 40 -36 67 -17 28 -34 57 -38 65 -4 8
-35 64 -70 124 -35 60 -77 132 -93 160 -15 28 -49 87 -74 131 l-46 80 0 -45
c-1 -25 -1 -397 -1 -827 l0 -783 -22 0 c-12 0 -30 0 -39 0 -10 0 -25 0 -33 0
-8 1 -39 1 -67 1 -29 -1 -68 0 -85 2 -18 2 -33 0 -33 -4 0 -4 -12 -4 -27 0
-16 4 -44 5 -63 1 -19 -3 -46 -3 -60 0 l-25 6 -2 1154 c-1 635 0 1160 2 1165
2 7 89 11 256 11 l254 0 48 -86z"/>
<path d="M3393 7176 l2 -311 290 1 c393 1 432 6 515 73 60 48 83 107 84 216 0
81 -10 130 -39 192 -36 73 -69 96 -190 131 -16 5 -172 9 -347 9 l-316 1 1
-312z"/>
<path d="M1088 1080 c-89 -47 -93 -225 -7 -270 58 -32 145 -16 172 30 24 40
22 60 -6 60 -14 0 -32 -12 -45 -29 -16 -22 -28 -29 -52 -27 -39 3 -57 21 -68
71 -20 93 44 159 111 113 15 -11 25 -23 22 -27 -2 -5 9 -8 25 -9 24 0 30 4 30
20 0 23 -54 78 -79 79 -9 1 -29 2 -44 3 -15 2 -42 -5 -59 -14z"/>
<path d="M5158 1079 c-43 -22 -68 -71 -68 -132 0 -59 14 -95 51 -128 24 -22
38 -26 77 -25 64 3 98 22 115 65 15 35 15 36 -10 39 -18 3 -32 -5 -52 -28 -23
-28 -31 -32 -59 -25 -42 9 -62 39 -62 92 0 57 17 90 52 102 34 12 62 2 78 -29
6 -12 21 -20 36 -20 23 0 25 3 20 28 -8 33 -49 72 -79 73 -12 1 -31 3 -43 4
-11 1 -37 -6 -56 -16z"/>
<path d="M6030 1092 c-20 -7 -29 -22 -24 -37 6 -15 56 -14 61 0 5 17 -21 43
-37 37z"/>
<path d="M6155 1084 c-11 -12 -13 -20 -6 -27 8 -8 14 -8 21 -1 8 8 23 8 50 0
35 -9 42 -8 54 9 17 24 4 44 -17 27 -9 -8 -24 -9 -48 -2 -18 6 -35 10 -36 10
-1 0 -9 -7 -18 -16z"/>
<path d="M2410 1044 c0 -27 -4 -43 -10 -39 -18 11 -73 14 -92 4 -29 -15 -48
-64 -46 -116 1 -39 7 -53 31 -76 25 -23 36 -27 66 -22 19 3 39 11 43 18 5 8 8
8 8 1 0 -15 50 -25 51 -10 0 6 2 73 3 149 l2 137 -28 0 c-27 0 -28 -2 -28 -46z
m-15 -91 c17 -44 15 -71 -7 -98 l-24 -27 -24 20 c-19 15 -24 29 -24 62 0 25 6
45 15 51 23 14 56 10 64 -8z"/>
<path d="M2626 953 c1 -76 2 -141 3 -144 2 -15 42 -17 48 -3 4 12 8 12 20 2
57 -47 133 13 133 106 0 25 -31 95 -42 96 -2 1 -19 3 -39 6 -21 3 -40 1 -44
-5 -14 -24 -25 -9 -25 34 0 43 -2 45 -28 45 l-27 0 1 -137z m132 5 c5 -7 12
-28 15 -46 9 -57 -53 -97 -81 -52 -11 19 -10 79 3 100 9 14 51 12 63 -2z"/>
<path d="M3314 975 c0 -122 -7 -142 -43 -130 -15 4 -21 15 -21 36 0 26 -3 29
-30 29 -25 0 -30 -4 -30 -25 0 -83 98 -128 155 -70 28 27 27 21 29 167 l1 108
-31 0 -30 0 0 -115z"/>
<path d="M4274 948 l1 -143 28 -3 27 -3 0 73 c0 79 9 98 47 98 25 0 33 -21 32
-85 -2 -73 1 -83 21 -88 29 -7 36 15 34 107 -1 69 -4 82 -24 98 -27 22 -58 23
-88 2 -22 -15 -22 -15 -22 35 0 49 -1 51 -28 51 l-28 0 0 -142z"/>
<path d="M1925 1053 c1 -10 -3 -25 -10 -33 -20 -22 -22 -44 -5 -45 12 0 15
-16 15 -76 0 -86 12 -109 56 -109 24 0 29 4 29 25 0 14 -3 24 -7 24 -28 -4
-29 3 -24 119 1 6 8 12 16 12 8 0 15 9 15 20 0 11 -7 20 -15 20 -10 0 -15 10
-15 30 0 26 -3 30 -29 30 -22 0 -29 -4 -26 -17z"/>
<path d="M4149 1053 c-1 -10 -1 -24 0 -30 1 -7 -5 -13 -14 -13 -20 0 -20 -29
1 -37 9 -3 15 -16 14 -32 -6 -88 0 -130 21 -141 31 -17 68 -5 62 20 -3 11 -9
17 -14 14 -11 -6 -10 -7 -15 78 -2 52 0 66 10 62 8 -3 16 4 19 15 3 14 0 21
-9 21 -13 0 -16 5 -18 40 -1 9 -13 16 -28 18 -21 3 -28 -1 -29 -15z"/>
<path d="M5880 1049 c0 -12 -7 -30 -16 -40 -17 -18 -12 -39 9 -39 9 0 12 -22
10 -75 -2 -84 11 -108 56 -103 30 4 41 34 14 42 -26 8 -27 127 0 138 21 9 23
38 2 38 -8 0 -16 6 -16 13 -1 6 -2 19 -3 27 0 8 -13 16 -28 18 -23 3 -28 -1
-28 -19z"/>
<path d="M1324 1012 c-11 -7 -15 -204 -4 -200 3 1 15 -4 28 -11 22 -12 22 -11
22 62 0 77 12 101 49 102 10 0 16 10 18 27 1 23 -2 27 -19 25 -11 -2 -27 -12
-34 -22 -12 -16 -14 -16 -14 -3 0 9 -7 19 -16 22 -19 7 -17 7 -30 -2z"/>
<path d="M1514 1013 c-47 -9 -76 -120 -45 -174 30 -53 110 -62 158 -17 13 12
23 25 23 30 0 14 -40 9 -71 -9 -27 -16 -29 -16 -49 2 -37 34 -26 44 53 47 77
3 78 4 63 60 -15 50 -65 74 -132 61z m74 -61 c14 -21 13 -22 -32 -22 -48 0
-56 9 -31 33 20 20 45 15 63 -11z"/>
<path d="M1718 1006 c-21 -15 -40 -54 -30 -60 14 -9 40 -1 63 20 22 20 25 20
47 2 19 -16 15 -25 -18 -37 -16 -5 -30 -8 -30 -5 0 2 -13 -2 -30 -11 -35 -18
-52 -46 -40 -65 5 -8 7 -17 4 -21 -7 -12 46 -40 69 -37 12 2 29 9 37 17 10 9
15 10 18 2 2 -6 19 -11 38 -11 30 0 33 2 26 18 -5 9 -9 46 -8 82 1 36 0 71 -2
78 -12 35 -109 53 -144 28z m89 -128 c-1 -27 -14 -38 -43 -38 -34 0 -38 37 -5
49 41 15 50 13 48 -11z"/>
<path d="M2070 993 c-27 -24 -33 -38 -35 -74 -3 -59 12 -97 44 -113 47 -24
122 -8 140 30 10 22 9 24 -20 24 -16 0 -32 -6 -34 -12 -10 -25 -51 -17 -69 13
l-17 29 74 0 c40 0 76 2 79 6 11 10 -11 76 -32 96 -12 11 -38 22 -59 25 -32 4
-43 0 -71 -24z m94 -36 c13 -21 5 -28 -33 -29 -37 -1 -44 4 -35 25 11 29 51
31 68 4z"/>
<path d="M2863 1014 c-12 -5 -9 -19 14 -74 3 -8 7 -19 9 -25 1 -5 12 -38 25
-72 19 -52 20 -64 9 -78 -7 -9 -19 -14 -26 -11 -18 7 -25 -20 -9 -34 15 -12
59 -4 73 13 5 7 17 37 27 67 10 30 20 60 24 65 3 6 6 15 7 20 1 6 12 37 23 69
12 33 21 60 21 60 0 1 -13 1 -30 1 -17 1 -31 -5 -31 -12 -2 -15 -2 -17 -17
-68 -7 -22 -16 -47 -22 -55 -8 -13 -10 -12 -10 3 0 25 0 24 -16 62 -8 19 -11
35 -8 35 4 0 -1 9 -11 20 -18 20 -29 23 -52 14z"/>
<path d="M3456 996 c-51 -40 -52 -135 -2 -179 59 -52 157 -19 172 58 8 44 -11
107 -38 124 -37 24 -101 22 -132 -3z m102 -38 c25 -31 14 -101 -19 -119 -18
-9 -25 -7 -41 8 -43 43 -29 123 22 123 15 0 32 -6 38 -12z"/>
<path d="M3670 910 l0 -109 29 1 30 1 0 75 c0 81 8 94 51 90 24 -3 25 -6 28
-83 4 -82 13 -100 42 -85 14 8 17 24 15 96 -2 77 -5 89 -25 106 -27 22 -58 23
-88 2 -17 -12 -22 -12 -22 -2 0 8 -12 14 -30 14 l-30 2 0 -108z"/>
<path d="M3960 1013 c-47 -17 -70 -75 -28 -70 12 1 30 10 39 19 11 10 26 14
39 11 36 -9 18 -35 -33 -48 -26 -7 -54 -20 -61 -31 -18 -24 -12 -72 11 -90 19
-15 60 -15 80 -1 7 5 26 6 42 2 34 -7 47 -4 43 9 -2 5 -3 44 -3 86 0 65 -4 81
-20 96 -20 18 -81 27 -109 17z m69 -142 c-12 -33 -43 -46 -60 -25 -16 19 -5
42 23 47 47 9 48 9 37 -22z"/>
<path d="M4553 1010 c-21 -9 -43 -38 -43 -59 0 -14 42 -10 55 5 19 21 44 23
61 7 19 -19 17 -21 -62 -42 -23 -6 -45 -19 -49 -29 -16 -40 -14 -59 9 -81 23
-22 49 -24 88 -7 10 5 31 3 48 -2 16 -6 31 -8 32 -4 2 4 2 48 0 99 l-3 91 -34
16 c-36 18 -68 19 -102 6z m79 -135 c-6 -34 -34 -48 -57 -31 -23 17 -14 43 17
49 44 8 45 7 40 -18z"/>
<path d="M4746 1013 c-3 -3 -6 -51 -6 -105 0 -93 1 -99 23 -107 12 -5 24 -7
26 -5 2 2 5 37 7 78 1 41 5 80 9 85 7 12 64 15 66 4 2 -14 9 -78 10 -88 0 -5
-2 -20 -5 -32 -6 -27 18 -55 39 -47 17 7 18 12 17 114 -1 65 -4 77 -23 93 -24
19 -60 19 -97 -1 -16 -9 -22 -10 -20 -1 3 12 -35 23 -46 12z"/>
<path d="M5434 1010 c-68 -26 -81 -149 -20 -199 23 -19 100 -22 125 -5 33 23
49 64 46 114 -6 77 -75 118 -151 90z m74 -49 c43 -37 12 -142 -36 -124 -55 21
-57 117 -2 136 8 3 15 6 16 6 1 1 11 -7 22 -18z"/>
<path d="M5629 992 c-5 -136 1 -176 29 -191 23 -12 85 -6 90 8 3 9 8 9 18 0 8
-6 14 -8 14 -4 0 4 7 2 15 -5 22 -18 26 2 23 116 -3 98 -3 99 -28 99 -24 0
-25 -2 -26 -70 -1 -84 -9 -105 -39 -105 -35 0 -44 20 -41 98 1 39 0 72 -3 73
-3 0 -16 2 -28 5 -19 3 -23 -1 -24 -24z"/>
<path d="M6010 909 c0 -105 0 -107 24 -111 31 -6 33 -2 30 107 -2 121 -1 115
-29 113 -25 -2 -25 -2 -25 -109z"/>
<path d="M6119 1013 c0 -2 -1 -47 -2 -100 0 -94 1 -99 23 -110 14 -7 26 -10
29 -8 2 3 5 35 6 72 2 82 10 103 40 103 33 0 40 -15 40 -94 1 -59 4 -70 20
-76 11 -4 23 -6 28 -3 11 6 9 171 -3 193 -15 27 -74 36 -105 16 -21 -14 -25
-14 -25 -2 0 9 -9 13 -25 12 -14 0 -25 -2 -26 -3z"/>
<path d="M6389 992 c-39 -35 -48 -89 -24 -142 9 -21 27 -42 39 -48 32 -14 104
-7 126 13 17 15 34 61 34 90 0 29 -17 75 -34 90 -11 10 -40 19 -65 21 -38 3
-50 -1 -76 -24z m111 -53 c30 -71 -33 -136 -77 -81 -19 24 -16 79 6 101 26 26
56 17 71 -20z"/>
<path d="M2758 693 c-13 -3 -18 -15 -18 -44 -2 -166 -1 -230 5 -239 9 -15 52
-12 59 5 3 8 2 15 -2 15 -4 0 -7 11 -7 25 0 14 4 25 8 25 4 0 4 8 0 18 -7 14
-9 52 -4 87 0 5 27 -33 59 -85 50 -82 62 -95 88 -98 l30 -3 0 145 c0 127 -2
145 -17 149 -37 10 -45 -8 -44 -102 1 -50 0 -91 -1 -91 -1 0 -26 41 -54 90
-52 91 -71 110 -102 103z"/>
<path d="M3898 690 c-23 -6 -23 -9 -23 -145 l0 -140 30 0 c28 0 30 3 31 40 1
22 2 45 3 50 0 6 22 10 49 10 26 -1 55 2 64 7 48 23 58 128 16 159 -23 18
-127 29 -170 19z m132 -70 c11 -20 6 -59 -8 -61 -32 -7 -82 -4 -83 5 -4 30 -4
62 -1 69 2 4 21 7 42 7 29 0 42 -5 50 -20z"/>
<path d="M4570 691 c-16 -4 -26 -14 -28 -29 -3 -20 0 -23 24 -20 23 2 28 8 29
31 1 15 1 26 1 26 -1 -1 -12 -4 -26 -8z"/>
<path d="M1053 683 c-7 -2 -13 -16 -13 -29 0 -13 -9 -32 -20 -41 -14 -12 -16
-20 -9 -30 6 -7 14 -11 18 -9 4 3 6 -28 6 -67 -1 -97 2 -107 34 -107 l26 0 -2
85 c-1 75 1 85 18 90 33 11 21 42 -13 36 -16 -2 -7 25 12 42 12 10 18 22 15
27 -6 10 -51 12 -72 3z"/>
<path d="M2162 684 c4 -3 2 -19 -2 -35 -5 -17 -5 -31 1 -35 6 -3 6 -11 1 -17
-4 -7 -7 -23 -5 -37 2 -14 4 -56 5 -93 1 -67 1 -68 27 -65 25 3 26 6 27 68 1
80 9 100 39 100 33 0 39 -14 40 -95 0 -69 1 -70 28 -73 l27 -3 0 88 c-1 61 -5
94 -15 107 -18 24 -71 29 -100 10 -20 -13 -21 -12 -19 36 1 49 1 50 -29 50
-17 0 -28 -3 -25 -6z"/>
<path d="M2038 663 c0 -5 -2 -12 -3 -18 -2 -5 -3 -16 -4 -22 0 -7 -7 -13 -15
-13 -9 0 -12 -7 -9 -20 3 -11 11 -20 17 -20 8 0 11 -21 10 -67 -3 -77 13 -113
49 -113 22 0 47 16 47 31 0 4 -9 9 -20 12 -18 5 -20 14 -20 76 0 51 3 70 13
69 6 -2 12 6 12 17 0 11 -6 21 -12 21 -7 1 -15 2 -18 3 -2 0 0 12 5 26 9 23 7
25 -20 25 -17 0 -31 -3 -32 -7z"/>
<path d="M5101 658 c4 -29 -2 -48 -14 -48 -7 0 -13 -9 -14 -19 -1 -14 3 -18
13 -14 10 4 14 -3 15 -23 3 -152 7 -164 57 -164 29 0 40 27 17 44 -12 8 -17
26 -17 57 -1 75 2 90 12 84 22 -13 22 26 1 41 -15 11 -20 22 -16 35 5 16 1 19
-25 19 -19 0 -30 -5 -29 -12z"/>
<path d="M1165 611 c-8 -14 -9 -196 -1 -210 4 -6 15 -7 29 -2 19 7 22 16 22
75 1 70 11 90 48 91 16 0 21 5 19 20 -6 32 -20 40 -40 22 -22 -20 -33 -22 -29
-5 3 16 -39 23 -48 9z"/>
<path d="M1363 610 c-50 -21 -76 -119 -45 -168 17 -26 62 -52 91 -52 41 0 88
31 99 66 15 49 6 104 -20 131 -26 25 -91 38 -125 23z m84 -59 c18 -23 16 -75
-4 -97 -24 -26 -61 -19 -74 12 -30 79 31 145 78 85z"/>
<path d="M1559 611 c-5 -46 -2 -151 4 -151 4 0 4 -8 -1 -17 -13 -26 -4 -43 23
-43 28 0 32 10 30 80 -3 64 8 90 35 90 28 0 34 -17 35 -95 0 -68 1 -70 25 -70
24 0 25 3 26 56 2 85 10 109 39 109 27 0 27 1 30 -80 2 -30 3 -65 4 -78 1 -16
5 -21 14 -15 6 4 19 8 27 8 12 0 15 16 14 89 -1 80 -4 92 -24 108 -27 22 -59
23 -86 4 -14 -11 -22 -12 -33 -3 -17 15 -61 17 -84 5 -11 -6 -23 -6 -30 0 -13
10 -47 12 -48 3z"/>
<path d="M2440 607 c-32 -16 -51 -56 -52 -107 -1 -71 50 -118 115 -106 36 7
77 36 77 55 0 16 -57 14 -63 -3 -4 -10 -15 -13 -34 -10 -32 6 -29 3 -37 30 -6
20 -3 21 61 23 37 1 72 6 76 10 14 14 -2 67 -28 91 -28 27 -81 35 -115 17z
m82 -51 c4 -6 8 -14 8 -17 0 -11 -33 -15 -63 -9 -27 5 -27 6 -11 28 16 24 50
23 66 -2z"/>
<path d="M3068 608 c-31 -13 -59 -75 -52 -116 9 -50 15 -61 45 -83 42 -30 104
-22 140 19 24 26 27 38 25 82 -3 39 -9 58 -28 77 -29 28 -89 38 -130 21z m98
-78 c13 -37 5 -65 -25 -86 -30 -23 -70 11 -71 59 0 44 20 68 55 65 24 -2 32
-10 41 -38z"/>
<path d="M3275 613 c-6 -2 -9 -24 -8 -50 1 -27 2 -67 2 -90 1 -57 32 -87 81
-79 19 3 36 10 38 16 3 7 8 7 18 -1 8 -6 14 -8 14 -3 0 5 4 4 8 -3 18 -28 33
5 33 73 1 145 2 139 -28 140 -28 1 -28 1 -27 -65 0 -87 -4 -100 -33 -107 -38
-10 -48 9 -48 93 0 70 -2 76 -20 78 -12 1 -25 0 -30 -2z"/>
<path d="M3517 605 c-3 -8 -1 -174 2 -197 1 -5 12 -8 26 -8 24 0 25 2 25 66 0
77 12 104 45 104 32 0 35 -8 37 -87 1 -75 9 -93 37 -86 16 4 19 16 19 91 0 76
-3 88 -24 109 -27 27 -60 30 -92 7 -20 -14 -22 -14 -22 0 0 18 -47 19 -53 1z"/>
<path d="M4139 610 c-6 -32 -2 -188 5 -197 4 -7 18 -13 30 -13 19 0 21 5 21
70 0 70 8 89 40 94 10 1 22 12 26 24 10 27 -17 39 -41 17 -21 -19 -30 -19 -30
-1 0 13 -49 19 -51 6z"/>
<path d="M4339 609 c-35 -13 -54 -52 -54 -112 1 -43 5 -53 34 -79 76 -68 184
-6 175 100 -6 81 -74 120 -155 91z m92 -66 c16 -42 10 -71 -18 -92 -23 -19
-29 -20 -47 -7 -12 7 -21 18 -21 24 0 6 -3 13 -7 17 -10 10 10 68 27 81 23 17
55 5 66 -23z"/>
<path d="M4541 494 c0 -88 -4 -130 -12 -135 -7 -4 -14 -17 -16 -28 -3 -19 1
-20 33 -16 20 2 39 7 43 10 3 4 6 70 6 148 l0 142 -27 3 -27 3 0 -127z"/>
<path d="M4683 604 c-35 -17 -42 -30 -50 -88 -14 -105 114 -169 178 -88 l21
27 -25 3 c-14 2 -37 -4 -50 -13 -13 -8 -31 -13 -40 -9 -16 6 -33 41 -24 50 2
3 35 6 73 7 67 2 69 3 66 27 -6 47 -27 80 -56 90 -39 13 -55 12 -93 -6z m68
-34 c10 -6 19 -18 19 -28 0 -13 -8 -17 -37 -16 -40 1 -54 26 -25 44 21 12 20
12 43 0z"/>
<path d="M4904 601 c-33 -26 -46 -58 -43 -104 3 -50 20 -80 55 -95 52 -24 115
-2 132 45 9 27 8 28 -19 29 -19 1 -30 -4 -34 -16 -16 -51 -71 -21 -78 41 -7
61 37 95 73 57 27 -29 60 -34 60 -9 0 56 -99 91 -146 52z"/>
</g>
</svg>
